USFL
nRows=273
nColumns=2
inDegrees=yes
endheader
time	tib_ant_r	
2.59476	 71.389251	
2.62802	 71.372854	
2.66129	 71.306671	
2.69456	 71.285844	
2.72782	 71.296297	
2.76109	 71.337588	
2.79435	 71.435403	
2.82762	 71.464770	
2.86089	 71.581444	
2.89415	 71.740052	
2.92742	 71.690144	
2.96069	 71.866500	
2.99395	 71.849788	
3.02722	 71.923767	
3.06048	 71.906870	
3.09375	 71.925893	
3.12702	 71.939829	
3.16028	 71.914077	
3.19355	 71.905116	
3.22681	 71.918634	
3.26008	 71.911748	
3.29335	 71.911243	
3.32661	 71.939223	
3.35988	 71.949854	
3.39315	 71.962030	
3.42641	 71.989147	
3.45968	 72.007132	
3.49294	 72.028491	
3.52621	 72.040907	
3.55948	 72.049237	
3.59274	 72.047102	
3.62601	 72.058390	
3.65927	 72.086877	
3.69254	 72.115353	
3.72581	 72.118836	
3.75907	 72.115724	
3.79234	 72.122731	
3.8256	 72.113826	
3.85887	 72.110486	
3.89214	 72.128902	
3.9254	 72.129208	
3.95867	 72.132669	
3.99194	 72.123718	
4.0252	 72.136444	
4.05847	 72.152805	
4.09173	 72.160206	
4.125	 72.185138	
4.15827	 72.195482	
4.19153	 72.187881	
4.2248	 72.189597	
4.25806	 72.212486	
4.29133	 72.227863	
4.3246	 72.260414	
4.35786	 72.286381	
4.39113	 72.275807	
4.4244	 72.307979	
4.45766	 72.322646	
4.49093	 72.347493	
4.52419	 72.355129	
4.55746	 72.354384	
4.59073	 72.359855	
4.62399	 72.369870	
4.65726	 72.374266	
4.69052	 72.397322	
4.72379	 72.401334	
4.75706	 72.403499	
4.79032	 72.424747	
4.82359	 72.425659	
4.85685	 72.418647	
4.89012	 72.383450	
4.92339	 72.370601	
4.95665	 72.369755	
4.98992	 72.339289	
5.02319	 72.353925	
5.05645	 72.355777	
5.08972	 72.367407	
5.12298	 72.389674	
5.15625	 72.403330	
5.18952	 72.407951	
5.22278	 72.398223	
5.25605	 72.404867	
5.28931	 72.331939	
5.32258	 71.915690	
5.35585	 72.053775	
5.38911	 72.177010	
5.42238	 72.238654	
5.45565	 72.464262	
5.48891	 73.090835	
5.52218	 73.328561	
5.55544	 73.533483	
5.58871	 73.125882	
5.62198	 72.742082	
5.65524	 72.427272	
5.68851	 61.185112	
5.72177	 61.261424	
5.75504	 61.087721	
5.78831	 60.917757	
5.82157	 60.914976	
5.85484	 60.423171	
5.8881	 60.232854	
5.92137	 60.161346	
5.95464	 59.844101	
5.9879	 59.751698	
6.02117	 59.658484	
6.05444	 59.485772	
6.0877	 59.539756	
6.12097	 59.117068	
6.15423	 59.085707	
6.1875	 58.787426	
6.22077	 58.609146	
6.25403	 58.533232	
6.2873	 58.335906	
6.32056	 58.363440	
6.35383	 58.243005	
6.3871	 58.229164	
6.42036	 58.195820	
6.45363	 58.145440	
6.4869	 58.090931	
6.52016	 57.980790	
6.55343	 57.865713	
6.58669	 57.764606	
6.61996	 57.669326	
6.65323	 57.621326	
6.68649	 57.554035	
6.71976	 57.477437	
6.75302	 57.496818	
6.78629	 57.427624	
6.81956	 57.303628	
6.85282	 57.279090	
6.88609	 57.266043	
6.91935	 57.330580	
6.95262	 57.289424	
6.98589	 57.281645	
7.01915	 57.233213	
7.05242	 57.154924	
7.08569	 57.095508	
7.11895	 57.071420	
7.15222	 56.917590	
7.18548	 56.770167	
7.21875	 56.706576	
7.25202	 56.706049	
7.28528	 56.667126	
7.31855	 56.649447	
7.35181	 56.548687	
7.38508	 56.541108	
7.41835	 56.447184	
7.45161	 56.373487	
7.48488	 56.386031	
7.51815	 56.406750	
7.55141	 56.338960	
7.58468	 56.320770	
7.61794	 56.323975	
7.65121	 56.288084	
7.68448	 56.243959	
7.71774	 56.179495	
7.75101	 56.153473	
7.78427	 56.116402	
7.81754	 56.141898	
7.85081	 56.161592	
7.88407	 56.161615	
7.91734	 56.131563	
7.9506	 56.131698	
7.98387	 56.137782	
8.01714	 56.130756	
8.0504	 56.169781	
8.08367	 56.125561	
8.11694	 56.108803	
8.1502	 56.097220	
8.18347	 56.099591	
8.21673	 56.034754	
8.25	 56.040835	
8.28327	 56.052863	
8.31653	 56.066158	
8.3498	 56.051393	
8.38306	 56.042035	
8.41633	 56.042721	
8.4496	 56.058809	
8.48286	 56.044588	
8.51613	 56.009480	
8.5494	 56.046952	
8.58266	 56.030618	
8.61593	 56.065173	
8.64919	 56.103740	
8.68246	 56.109208	
8.71573	 56.012192	
8.74899	 56.014676	
8.78226	 56.018942	
8.81552	 56.060573	
8.84879	 56.095346	
8.88206	 56.157485	
8.91532	 56.194023	
8.94859	 56.214584	
8.98185	 56.268886	
9.01512	 56.309943	
9.04839	 56.323901	
9.08165	 56.361796	
9.11492	 56.354743	
9.14819	 56.373233	
9.18145	 56.356278	
9.21472	 56.364323	
9.24798	 56.350255	
9.28125	 56.288307	
9.31452	 56.300719	
9.34778	 56.407645	
9.38105	 56.481377	
9.41431	 56.506158	
9.44758	 56.850357	
9.48085	 56.918163	
9.51411	 57.006790	
9.54738	 57.087154	
9.58065	 57.085184	
9.61391	 57.177346	
9.64718	 57.267950	
9.68044	 57.299036	
9.71371	 57.349315	
9.74698	 57.380735	
9.78024	 57.342165	
9.81351	 57.345839	
9.84677	 57.280892	
9.88004	 57.206487	
9.91331	 57.076102	
9.94657	 57.042118	
9.97984	 56.941146	
10.0131	 62.640433	
10.0464	 62.593537	
10.0796	 62.576554	
10.1129	 62.608217	
10.1462	 62.854303	
10.1794	 63.035987	
10.2127	 62.951325	
10.246	 63.245794	
10.2792	 63.396391	
10.3125	 63.338766	
10.3458	 63.428464	
10.379	 63.399721	
10.4123	 63.393654	
10.4456	 63.454913	
10.4788	 63.519551	
10.5121	 63.583495	
10.5454	 63.612325	
10.5786	 63.636091	
10.6119	 63.626749	
10.6452	 66.073648	
10.6784	 66.067263	
10.7117	 66.089809	
10.745	 66.083426	
10.7782	 66.068184	
10.8115	 66.129354	
10.8448	 66.165113	
10.878	 66.267315	
10.9113	 66.354838	
10.9446	 66.359538	
10.9778	 66.430236	
11.0111	 66.448882	
11.0444	 66.413272	
11.0776	 66.460576	
11.1109	 66.564362	
11.1442	 66.541686	
11.1774	 66.551442	
11.2107	 66.633826	
11.244	 66.660525	
11.2772	 66.609748	
11.3105	 66.637321	
11.3437	 66.631957	
11.377	 66.640067	
11.4103	 66.716666	
11.4435	 66.761193	
11.4768	 66.856503	
11.5101	 66.904515	
11.5433	 66.953714	
11.5766	 67.044366	
11.6099	 67.057504	
11.6431	 67.158311	
